<svg id="svg" xmlns="http://www.w3.org/2000/svg" xmlns:xlink="http://www.w3.org/1999/xlink" width="400" height="456.0240963855422" viewBox="0, 0, 400,456.0240963855422"><g id="svgg"><path id="path0" d="M167.269 208.132 L 100.904 274.498 111.375 284.969 L 121.846 295.440 129.728 290.889 C 134.063 288.386,137.630 286.362,137.655 286.392 C 137.694 286.438,140.607 291.471,150.452 308.499 C 151.335 310.026,151.979 311.348,151.882 311.435 C 151.786 311.523,148.363 313.515,144.277 315.862 C 140.191 318.209,136.732 320.237,136.591 320.369 C 136.354 320.589,143.545 348.353,143.966 348.844 C 144.036 348.926,155.927 345.822,170.390 341.945 C 184.853 338.069,196.958 334.871,197.289 334.838 C 197.620 334.805,198.795 334.535,199.900 334.240 C 201.004 333.944,203.760 333.208,206.024 332.605 C 208.288 332.001,210.627 331.366,211.222 331.193 L 212.304 330.879 189.937 308.496 L 167.570 286.112 239.709 214.074 C 279.385 174.453,311.847 141.976,311.847 141.902 C 311.847 141.828,294.249 141.767,272.741 141.767 L 233.634 141.767 167.269 208.132 M362.550 233.045 C 360.294 233.665,349.888 236.453,342.269 238.478 L 335.843 240.186 313.805 262.211 L 291.767 284.236 301.757 294.237 C 310.597 303.086,311.805 304.225,312.249 304.131 C 312.525 304.072,313.745 303.751,314.960 303.418 C 316.175 303.085,318.962 302.339,321.154 301.761 L 325.140 300.710 326.425 298.531 C 327.132 297.333,327.711 296.321,327.711 296.282 C 327.711 296.244,328.389 295.067,329.217 293.668 C 330.045 292.269,330.723 291.095,330.723 291.060 C 330.723 291.025,331.275 290.063,331.949 288.922 C 333.290 286.654,338.301 277.980,339.115 276.516 C 339.395 276.014,340.151 274.713,340.796 273.626 C 341.440 272.539,341.968 271.623,341.968 271.590 C 341.968 271.557,342.702 270.278,343.598 268.747 C 345.582 265.362,349.583 258.434,350.327 257.098 C 350.625 256.563,351.396 255.235,352.041 254.148 C 352.685 253.061,353.213 252.145,353.213 252.112 C 353.213 252.079,353.947 250.800,354.843 249.269 C 356.827 245.884,360.828 238.956,361.572 237.620 C 361.870 237.085,362.635 235.767,363.273 234.692 C 364.618 232.424,364.639 232.471,362.550 233.045 " stroke="none" fill="#bdc7d7" fill-rule="evenodd"></path><path id="path1" d="M15.261 219.758 L -0.100 235.141 19.578 254.819 L 39.256 274.498 19.578 294.177 L -0.100 313.855 15.261 329.217 L 30.622 344.578 48.058 344.578 C 57.713 344.578,65.465 344.655,65.428 344.751 C 65.392 344.846,61.487 351.629,56.753 359.825 L 48.144 374.726 53.717 395.546 C 56.782 406.997,59.346 416.467,59.414 416.591 C 59.498 416.745,68.081 414.523,86.245 409.646 C 100.934 405.702,113.005 402.529,113.071 402.593 C 113.137 402.658,116.378 414.639,120.274 429.217 C 124.170 443.795,127.432 455.803,127.522 455.902 C 127.710 456.106,169.253 445.051,169.605 444.703 C 169.730 444.579,178.608 429.273,189.332 410.688 L 208.832 376.898 203.305 356.270 C 196.841 332.142,197.635 334.940,197.258 334.940 C 197.006 334.940,144.719 348.886,144.076 349.124 C 143.964 349.166,142.196 342.915,140.063 334.941 C 137.967 327.099,136.171 320.683,136.072 320.683 C 135.973 320.683,134.029 321.762,131.752 323.081 C 129.474 324.400,127.472 325.532,127.303 325.596 C 126.892 325.751,112.464 300.842,112.834 300.613 C 112.966 300.532,115.014 299.346,117.385 297.978 L 121.696 295.492 111.200 284.995 L 100.704 274.498 120.281 254.919 L 139.859 235.341 124.485 219.967 L 109.111 204.594 69.867 204.484 L 30.622 204.374 15.261 219.758 M85.381 259.187 L 100.579 274.398 85.343 289.759 L 70.107 305.120 54.783 289.809 L 39.458 274.498 54.719 259.237 C 63.112 250.843,70.025 243.976,70.080 243.976 C 70.136 243.976,77.021 250.821,85.381 259.187 M260.140 315.864 L 228.613 347.389 251.204 369.979 L 273.796 392.570 336.898 392.570 C 371.604 392.570,400.000 392.502,400.000 392.420 C 400.000 392.190,311.977 304.217,311.748 304.217 C 311.638 304.217,307.074 299.744,301.607 294.278 L 291.666 284.339 260.140 315.864 M149.430 370.275 C 152.493 381.703,154.973 391.078,154.942 391.109 C 154.838 391.213,113.695 402.209,113.412 402.209 C 113.154 402.209,101.857 360.727,102.060 360.524 C 102.232 360.351,143.110 349.432,143.467 349.463 C 143.816 349.494,144.499 351.880,149.430 370.275 " stroke="none" fill="#04549c" fill-rule="evenodd"></path><path id="path2" d="M174.700 97.288 L 77.411 194.577 82.329 199.497 L 87.246 204.418 98.191 204.418 L 109.136 204.418 124.548 219.829 L 139.960 235.240 186.697 188.504 L 233.434 141.767 242.169 141.767 L 250.904 141.767 321.787 70.884 L 392.670 0.000 332.329 0.000 L 271.988 0.000 174.700 97.288 M252.308 201.456 L 230.622 223.193 261.144 253.657 L 291.667 284.121 343.976 231.930 L 396.285 179.740 335.140 179.729 L 273.995 179.719 252.308 201.456 M0.000 274.498 L 0.000 313.554 19.528 294.026 L 39.056 274.498 19.528 254.970 L 0.000 235.442 0.000 274.498 M129.518 291.070 C 125.266 293.543,119.777 296.723,117.321 298.135 C 114.865 299.547,112.877 300.802,112.903 300.924 C 112.996 301.348,127.009 325.497,127.164 325.499 C 127.250 325.501,129.102 324.473,131.281 323.216 C 133.459 321.958,135.602 320.728,136.044 320.481 C 141.000 317.717,151.807 311.358,151.807 311.207 C 151.807 310.819,137.690 286.546,137.472 286.559 C 137.349 286.566,133.770 288.596,129.518 291.070 " stroke="none" fill="#53c3fb" fill-rule="evenodd"></path><path id="path3" d="M199.012 254.703 L 167.603 286.113 197.971 316.601 C 214.673 333.369,228.401 347.111,228.477 347.139 C 228.553 347.166,242.801 333.002,260.140 315.663 L 291.666 284.137 261.245 253.715 C 244.513 236.983,230.733 223.293,230.622 223.293 C 230.512 223.293,216.287 237.428,199.012 254.703 M103.815 405.019 C 99.011 406.319,87.264 409.473,77.711 412.027 C 68.158 414.582,60.172 416.742,59.965 416.829 C 59.675 416.950,67.324 421.451,93.388 436.500 C 111.977 447.232,127.216 455.983,127.253 455.946 C 127.290 455.910,125.639 449.609,123.586 441.946 C 121.532 434.282,118.364 422.455,116.546 415.663 C 112.658 401.136,113.081 402.605,112.788 402.633 C 112.657 402.645,108.619 403.719,103.815 405.019 " stroke="none" fill="#2cb4f3" fill-rule="evenodd"></path><path id="path4" d="M186.646 188.604 L 139.859 235.442 186.697 188.655 C 230.244 145.154,233.624 141.767,233.484 141.767 C 233.456 141.767,212.379 162.844,186.646 188.604 M313.554 262.299 L 291.667 284.237 313.604 262.350 C 333.999 242.002,335.632 240.361,335.492 240.361 C 335.464 240.361,325.592 250.233,313.554 262.299 " stroke="none" fill="#7cb7da" fill-rule="evenodd"></path><path id="path5" d="M135.741 239.508 L 131.627 243.675 135.793 239.560 C 138.085 237.297,139.960 235.422,139.960 235.393 C 139.960 235.251,139.564 235.637,135.741 239.508 M116.064 259.137 L 100.704 274.498 111.245 284.990 L 121.787 295.482 111.346 284.990 L 100.905 274.498 116.265 259.136 C 124.713 250.688,131.580 243.775,131.525 243.775 C 131.470 243.775,124.512 250.688,116.064 259.137 M301.606 294.277 C 307.072 299.744,311.590 304.217,311.645 304.217 C 311.700 304.217,307.273 299.744,301.807 294.277 C 296.341 288.810,291.824 284.337,291.769 284.337 C 291.713 284.337,296.140 288.810,301.606 294.277 " stroke="none" fill="#3c86ba" fill-rule="evenodd"></path><path id="path6" d="" stroke="none" fill="#1e9fe0" fill-rule="evenodd"></path><path id="path7" d="M19.478 254.869 L 39.055 274.498 19.478 294.127 L -0.100 313.755 19.578 294.127 L 39.257 274.498 19.578 254.869 L -0.100 235.241 19.478 254.869 M260.140 315.713 L 228.614 347.289 260.191 315.763 C 289.548 286.453,291.857 284.137,291.717 284.137 C 291.689 284.137,277.480 298.346,260.140 315.713 " stroke="none" fill="#3398d3" fill-rule="evenodd"></path><path id="path8" d="M98.193 204.568 L 109.137 204.621 124.598 220.031 L 140.060 235.442 124.599 219.930 L 109.138 204.418 98.193 204.466 L 87.249 204.515 98.193 204.568 " stroke="none" fill="#147cc4" fill-rule="evenodd"></path></g></svg>